<svg xmlns="http://www.w3.org/2000/svg" viewBox="0 0 48 48" fill="none" stroke="currentColor" stroke-width="2" stroke-linecap="round" stroke-linejoin="round">
  <title>Spark Aligners (over 20 aligners - advanced case)</title>
  <path d="M10 20c0-6 6.2-10 14-10s14 4 14 10v4c0 2-1.6 3.5-3.6 3.5h-2.2c-1.4 0-2.3-1.4-3-3.2-.7 1.8-1.6 3.2-3.2 3.2s-2.5-1.4-3.2-3.2c-.7 1.8-1.6 3.2-3 3.2h-2.2C11.6 27.5 10 26 10 24Z"/>
  <path d="M36.5 7 37.8 10.2 41 11.5 37.8 12.8 36.5 16 35.2 12.8 32 11.5 35.2 10.2Z"/>
  <text x="40" y="11" text-anchor="end" fill="currentColor" stroke="none" font-size="8" font-family="ui-sans-serif, system-ui, sans-serif" font-weight="700">20+</text>
</svg>
