<svg xmlns="http://www.w3.org/2000/svg" viewBox="0 0 48 48" fill="none" stroke="currentColor" stroke-width="2" stroke-linecap="round" stroke-linejoin="round">
  <title>Aesthetics</title>
  <path d="M24 9c-4.6 0-8 3.7-8 8.6 0 3.6.5 6.6-2 11.8-.8 1.9.6 2.9 2.3 2.2 1.8-.7 3.8-2.3 7.7-2.3s5.9 1.6 7.7 2.3c1.7.7 3.1-.3 2.3-2.2-2.5-5.2-2-8.2-2-11.8 0-4.9-3.4-8.6-8-8.6Z"/>
  <path d="M18 17.5c2-3.4 5.4-5 9.2-4.4"/>
  <path d="M36 6.5 37.4 9.8 40.7 11.2 37.4 12.6 36 15.9 34.6 12.6 31.3 11.2 34.6 9.8Z"/>
  <path d="M10.5 13 11.4 15.3 13.7 16.2 11.4 17.1 10.5 19.4 9.6 17.1 7.3 16.2 9.6 15.3Z"/>
  <path d="M40.5 18.5 41.2 20.3 43 21 41.2 21.7 40.5 23.5 39.8 21.7 38 21 39.8 20.3Z"/>
</svg>
